<?xml version="1.0" encoding="UTF-8" standalone="no"?>
<svg
   viewBox="0 0 108 108"
   id="vector"
   version="1.1"
   sodipodi:docname="vector.svg"
   inkscape:version="1.1.2 (b8e25be833, 2022-02-05)"
   xmlns:inkscape="http://www.inkscape.org/namespaces/inkscape"
   xmlns:sodipodi="http://sodipodi.sourceforge.net/DTD/sodipodi-0.dtd"
   xmlns="http://www.w3.org/2000/svg"
   xmlns:svg="http://www.w3.org/2000/svg">
  <defs
     id="defs15" />
  <sodipodi:namedview
     id="namedview13"
     pagecolor="#ffffff"
     bordercolor="#666666"
     borderopacity="1.0"
     inkscape:pageshadow="2"
     inkscape:pageopacity="0.0"
     inkscape:pagecheckerboard="0"
     showgrid="false"
     inkscape:zoom="1.9236111"
     inkscape:cx="71.480144"
     inkscape:cy="86.296029"
     inkscape:window-width="1920"
     inkscape:window-height="1017"
     inkscape:window-x="-8"
     inkscape:window-y="-8"
     inkscape:window-maximized="1"
     inkscape:current-layer="group" />
  <g
     id="group"
     transform="translate(28.62 28.62) scale(0.37470475 0.37470475)">
    <rect
       style="fill:#a3805a;fill-opacity:1;stroke-width:2.66877"
       id="rect3901"
       width="291.34854"
       height="291.34854"
       x="-77.073822"
       y="-77.073822" />
    <g
       id="g9623"
       transform="translate(12.044156,-1.7072305)">
      <path
         id="path"
         d="m -10.553526,39.828501 c -7.909674,0 -14.275352,6.367883 -14.275352,14.275352 v 31.261521 c 0,7.909675 6.367883,14.275353 14.275352,14.275353 H 128.57602 c 7.90967,0 14.27535,-6.367884 14.27535,-14.275353 V 54.103853 c 0,-7.909675 -6.36788,-14.275352 -14.27535,-14.275352 z m 109.41643,9.641156 c 5.015786,0 9.828646,1.993962 13.375426,5.540743 3.54678,3.546781 5.54074,8.359638 5.54074,13.375422 0,5.015784 -1.99396,9.828642 -5.54074,13.375423 -3.54678,3.546781 -8.35964,5.540742 -13.375426,5.540742 -5.015783,0 -9.828642,-1.993961 -13.375423,-5.540742 -3.546781,-3.546781 -5.540742,-8.359639 -5.540742,-13.375423 0,-5.015784 1.993961,-9.828641 5.540742,-13.375422 3.546781,-3.546781 8.35964,-5.540743 13.375423,-5.540743 z m -80.57016,5.979679 c 3.46517,0 6.793586,1.378568 9.244129,3.829112 2.450543,2.450542 3.829112,5.778958 3.829112,9.244128 0,3.46517 -1.378569,6.793586 -3.829112,9.244129 -2.450543,2.450543 -5.778959,3.829112 -9.244129,3.829112 -3.46517,0 -6.79138,-1.378569 -9.241923,-3.829112 -2.4505434,-2.450543 -3.8291119,-5.778959 -3.8291119,-9.244129 0,-3.46517 1.3785685,-6.793586 3.8291119,-9.244128 2.450543,-2.450544 5.776753,-3.829112 9.241923,-3.829112 z"
         fill="#a3805a"
         stroke-width="0.48116"
         style="fill:#ffffff;fill-opacity:1" />
      <path
         id="path_1"
         d="M 132.76687,-7.2325192 C 124.84616,3.8511715 112.85813,11.370435 99.431977,13.670991 86.003617,15.971546 72.195875,12.876935 61.03719,5.0621061 49.878505,-2.752723 42.248956,-14.670172 39.82047,-28.074269 c -2.428487,-13.406303 0.535987,-27.242719 8.244942,-38.474192 l 42.62975,29.258737 z"
         fill="#a3805a"
         stroke="#00000000"
         stroke-width="8.74562"
         style="fill:#ffffff;fill-opacity:1" />
      <path
         id="path_2"
         d="m 75.281663,-14.458424 1.312397,0.527165 c 1.466797,0.588924 2.71964,1.537379 3.632804,2.752725 0.913164,1.2131406 1.455768,2.6512633 1.570465,4.1665858 0.116903,1.5153225 -0.196308,3.0549078 -0.908752,4.4643562 L 54.984723,48.76383 c -1.07418,2.12851 -2.986531,3.818083 -5.311349,4.695956 -2.327023,0.877872 -4.879029,0.871255 -7.091356,-0.01765 l -1.312397,-0.527164 c -1.466797,-0.588925 -2.71964,-1.53738 -3.632804,-2.752726 -0.913164,-1.21314 -1.455768,-2.651263 -1.570465,-4.166585 -0.116903,-1.515323 0.196308,-3.054908 0.908752,-4.464357 L 62.878958,-9.7801138 c 1.074181,-2.1285102 2.986531,-3.8180832 5.311349,-4.6959552 2.327023,-0.877873 4.879029,-0.871256 7.091356,0.01764 z"
         fill="#a3805a"
         stroke="#00000000"
         stroke-width="7.42124"
         style="fill:#ffffff;fill-opacity:1" />
      <path
         id="path_3"
         d="m 109.69956,-67.699842 0.16322,0.09485 c 1.42268,0.833758 2.59171,2.02043 3.38797,3.440907 0.79846,1.422682 1.19549,3.030645 1.15579,4.660664 -0.0397,1.627814 -0.51834,3.224747 -1.38739,4.625373 l -16.242847,26.217064 c -0.866844,1.400626 -2.095424,2.558623 -3.55781,3.354884 -1.462385,0.796262 -3.11005,1.204318 -4.775361,1.182261 -1.665311,-0.01985 -3.288713,-0.469816 -4.711396,-1.303575 l -0.163222,-0.09484 c -1.422683,-0.833758 -2.591709,-2.02043 -3.38797,-3.440907 -0.798467,-1.422683 -1.195495,-3.030645 -1.155792,-4.660664 0.0397,-1.627814 0.518342,-3.224748 1.387391,-4.625373 l 16.242846,-26.214859 c 0.866844,-1.400625 2.095424,-2.558623 3.557811,-3.354884 1.46238,-0.796261 3.10784,-1.206523 4.77315,-1.184466 1.66531,0.01985 3.29092,0.469816 4.71361,1.303574 z"
         fill="#a3805a"
         stroke="#00000000"
         stroke-width="7.61746"
         style="fill:#ffffff;fill-opacity:1" />
      <path
         id="path_4"
         d="m 92.503843,112.21327 c -6.608305,0 -11.926271,5.32017 -11.926271,11.92627 v 49.03072 c 0,6.60831 5.320171,11.92627 11.926271,11.92627 h 17.683177 v -56.8279 c 0,-7.21267 4.4445,-13.34234 10.75283,-15.82817 -0.74994,-0.14558 -1.52414,-0.22498 -2.3182,-0.22498 z"
         fill="#a3805a"
         stroke-width="0.289947"
         style="fill:#ffffff;fill-opacity:1" />
      <path
         id="path_5"
         d="m 137.98337,118.00547 c -5.6003,0 -10.38889,3.33723 -12.50196,8.13906 l 26.63835,24.07091 27.7765,-25.10097 c -2.31158,-4.24379 -6.80682,-7.11121 -11.99906,-7.11121 z m 43.39292,15.92081 -29.4374,26.60085 -27.79414,-25.11862 0.17645,27.41036 26.97583,24.3775 30.25793,-27.33977 z m 0.17867,36.65889 -30.25572,27.34198 v 0 l -26.97583,-24.37751 -0.002,22.41001 c 0,7.56779 6.09217,13.65996 13.65996,13.65996 H 167.893 c 7.56779,0 13.65996,-6.09217 13.65996,-13.65996 z"
         fill="#a3805a"
         stroke="#00000000"
         stroke-width="8.0819"
         style="fill:#ffffff;fill-opacity:1" />
      <path
         id="path_6"
         d="m 98.907018,67.686612 m -7.640578,0 c -0.0044,-1.616785 0.502902,-3.193867 1.451357,-4.504059 0.948455,-1.310191 2.287321,-2.285114 3.824701,-2.78581 1.537379,-0.500697 3.193867,-0.500697 4.731242,0 1.53738,0.500696 2.87625,1.475619 3.82471,2.78581 0.94845,1.310192 1.45576,2.887274 1.45135,4.504059 0.004,1.616785 -0.5029,3.193868 -1.45135,4.504059 -0.94846,1.310192 -2.28733,2.285115 -3.82471,2.785811 -1.537375,0.500696 -3.193863,0.500696 -4.731242,0 -1.53738,-0.500696 -2.876246,-1.475619 -3.824701,-2.785811 -0.948455,-1.310191 -1.455768,-2.887274 -1.451357,-4.504059"
         fill="#a3805a"
         stroke="#00000000"
         stroke-width="27.4942"
         style="fill:#ffffff;fill-opacity:1" />
      <path
         id="path_7"
         d="m -54.603752,118.00547 c -5.600297,0 -10.388892,3.33723 -12.501962,8.13906 l 26.636149,24.07312 27.776501,-25.10098 c -2.311584,-4.24378 -6.80682,-7.1112 -11.99906,-7.1112 z m 43.39513,15.92081 -29.4374,26.60085 -27.796352,-25.11862 0.178662,27.41036 26.975829,24.3775 30.255718,-27.33977 z m 0.178663,36.65889 -30.257924,27.34198 v 0 l -26.975829,-24.37751 -0.0022,22.41001 c 0,7.56779 6.09217,13.65996 13.659959,13.65996 h 29.911628 c 7.56779,0 13.659959,-6.09217 13.659959,-13.65996 z"
         fill="#a3805a"
         stroke="#00000000"
         stroke-width="8.0819"
         style="fill:#ffffff;fill-opacity:1" />
      <path
         id="path_8"
         d="m 22.640198,112.21327 c 6.608306,0 11.926271,5.32017 11.926271,11.92627 v 49.03072 c 0,6.60831 -5.320171,11.92627 -11.926271,11.92627 H 4.957024 v -56.8279 c 0,-7.21267 -4.44450484,-13.34234 -10.7528343,-15.82817 0.7499413,-0.14558 1.5241454,-0.22498 2.3182008,-0.22498 z"
         fill="#a3805a"
         stroke-width="0.289947"
         style="fill:#ffffff;fill-opacity:1" />
    </g>
  </g>
</svg>
